<svg 
 xmlns="http://www.w3.org/2000/svg"
 xmlns:xlink="http://www.w3.org/1999/xlink"
 width="46px" height="58px">
<path fill-rule="evenodd"  fill="rgb(122, 197, 49)"
 d="M44.590,57.341 L1.870,57.341 C1.196,57.341 0.650,56.790 0.650,56.110 L0.650,52.319 C0.650,50.404 2.361,48.723 4.311,48.723 C6.926,48.723 9.150,46.793 9.483,44.232 C9.502,44.089 9.519,43.945 9.534,43.799 L9.194,43.799 C7.187,43.799 5.594,42.278 5.534,40.323 C5.533,40.301 5.532,40.279 5.532,40.256 L5.532,40.208 C5.532,40.176 5.533,40.144 5.536,40.112 C5.624,38.083 7.271,36.413 9.194,36.413 L9.689,36.413 C10.356,33.307 12.879,28.768 16.827,26.578 C17.742,26.070 18.633,25.480 19.468,24.867 C19.188,24.887 18.912,24.903 18.639,24.919 C16.993,25.015 15.438,25.106 13.795,25.985 C11.710,27.098 9.992,27.640 8.544,27.640 C6.873,27.640 5.769,26.924 4.910,26.222 C3.839,25.349 3.229,24.212 3.190,23.021 C3.162,22.163 3.428,20.863 4.850,19.541 C5.248,19.170 5.720,18.774 6.234,18.342 C8.285,16.618 10.840,14.472 12.079,11.118 C13.411,7.514 16.685,6.203 18.957,5.920 C19.063,4.991 19.129,3.301 19.129,1.876 C19.129,1.227 19.629,0.690 20.271,0.648 C23.056,0.460 26.031,3.156 27.132,4.270 C29.106,4.285 34.081,5.295 38.621,14.123 C41.852,20.404 41.628,27.920 37.960,36.483 C39.627,36.828 40.929,38.381 40.929,40.181 L40.929,40.311 C40.929,42.267 39.320,43.799 37.267,43.799 L35.732,43.799 C35.738,43.865 35.743,43.932 35.750,43.999 C36.002,46.693 38.239,48.723 40.951,48.723 L42.149,48.723 C44.100,48.723 45.811,50.404 45.811,52.319 L45.811,56.110 C45.811,56.790 45.264,57.341 44.590,57.341 ZM43.370,52.319 C43.370,51.779 42.731,51.185 42.149,51.185 L40.951,51.185 C36.973,51.185 33.692,48.196 33.319,44.232 C33.260,43.602 33.246,43.016 33.278,42.492 C33.317,41.843 33.851,41.337 34.496,41.337 L37.267,41.337 C37.855,41.337 38.488,41.016 38.488,40.311 L38.488,40.181 C38.488,39.498 37.906,38.875 37.267,38.875 L36.096,38.875 C35.677,38.875 35.288,38.658 35.064,38.301 C34.841,37.943 34.814,37.495 34.995,37.113 C39.033,28.579 39.525,21.226 36.454,15.257 C32.386,7.347 28.257,6.732 27.089,6.732 C26.953,6.732 26.866,6.741 26.834,6.745 C26.437,6.808 26.008,6.661 25.736,6.359 C25.104,5.660 23.222,3.890 21.556,3.298 C21.479,6.949 21.104,7.528 20.952,7.762 C20.723,8.115 20.358,8.341 19.911,8.320 C19.742,8.320 15.703,8.361 14.367,11.978 C12.901,15.945 9.950,18.424 7.796,20.234 C7.316,20.637 6.877,21.005 6.505,21.351 C6.095,21.733 5.610,22.318 5.630,22.941 C5.645,23.421 5.941,23.823 6.211,24.095 C6.585,23.829 7.066,23.613 7.565,23.395 C8.986,22.775 11.364,21.739 13.143,19.614 C13.579,19.096 14.348,19.030 14.864,19.468 C15.379,19.907 15.443,20.684 15.009,21.204 C13.502,23.002 11.727,24.111 10.240,24.862 C10.954,24.634 11.755,24.288 12.652,23.809 C14.766,22.679 16.748,22.563 18.498,22.461 C20.780,22.328 22.751,22.213 24.926,19.962 C25.390,19.483 26.150,19.466 26.635,19.924 C27.120,20.383 27.151,21.149 26.705,21.647 C26.542,21.830 22.637,26.164 18.004,28.735 C14.039,30.935 12.082,35.750 11.959,37.721 C11.918,38.370 11.385,38.875 10.740,38.875 L9.194,38.875 C8.573,38.875 7.980,39.540 7.973,40.245 C7.979,40.846 8.515,41.337 9.194,41.337 L10.840,41.337 C11.172,41.337 11.489,41.473 11.719,41.714 C11.949,41.954 12.072,42.279 12.060,42.613 C12.035,43.305 11.984,43.939 11.904,44.553 C11.411,48.334 8.147,51.185 4.311,51.185 C3.730,51.185 3.091,51.779 3.091,52.319 L3.091,54.879 L43.370,54.879 L43.370,52.319 ZM32.436,22.510 C31.900,20.842 30.742,20.333 30.731,20.328 C30.100,20.087 29.784,19.376 30.023,18.740 C30.262,18.105 30.968,17.787 31.598,18.027 C32.429,18.346 34.030,19.489 34.758,21.750 C36.021,25.673 34.334,31.247 29.744,38.318 C29.510,38.679 29.120,38.875 28.722,38.875 C28.492,38.875 28.260,38.810 28.054,38.673 C27.490,38.301 27.333,37.538 27.702,36.969 C32.889,28.978 33.140,24.695 32.436,22.510 Z"/>
</svg>