<svg 
 xmlns="http://www.w3.org/2000/svg"
 xmlns:xlink="http://www.w3.org/1999/xlink"
 width="52px" height="52px">
<path fill-rule="evenodd"  fill="rgb(143, 202, 78)"
 d="M50.762,52.000 L38.381,52.000 C37.697,52.000 37.143,51.446 37.143,50.762 L37.143,38.381 C37.143,37.696 37.697,37.142 38.381,37.142 L50.762,37.142 C51.446,37.142 52.000,37.696 52.000,38.381 L52.000,50.762 C52.000,51.446 51.446,52.000 50.762,52.000 ZM49.524,39.619 L39.619,39.619 L39.619,49.524 L49.524,49.524 L49.524,39.619 ZM50.762,33.428 L38.381,33.428 C37.697,33.428 37.143,32.875 37.143,32.190 L37.143,19.809 C37.143,19.125 37.697,18.571 38.381,18.571 L50.762,18.571 C51.446,18.571 52.000,19.125 52.000,19.809 L52.000,32.190 C52.000,32.875 51.446,33.428 50.762,33.428 ZM49.524,21.047 L39.619,21.047 L39.619,30.952 L49.524,30.952 L49.524,21.047 ZM50.762,14.857 L38.381,14.857 C37.697,14.857 37.143,14.303 37.143,13.619 L37.143,1.238 C37.143,0.554 37.697,-0.000 38.381,-0.000 L50.762,-0.000 C51.446,-0.000 52.000,0.554 52.000,1.238 L52.000,13.619 C52.000,14.303 51.446,14.857 50.762,14.857 ZM49.524,2.476 L39.619,2.476 L39.619,12.381 L49.524,12.381 L49.524,2.476 ZM32.190,52.000 L19.810,52.000 C19.126,52.000 18.571,51.446 18.571,50.762 L18.571,38.381 C18.571,37.696 19.126,37.142 19.810,37.142 L32.190,37.142 C32.874,37.142 33.429,37.696 33.429,38.381 L33.429,50.762 C33.429,51.446 32.874,52.000 32.190,52.000 ZM30.952,39.619 L21.048,39.619 L21.048,49.524 L30.952,49.524 L30.952,39.619 ZM32.190,33.428 L19.810,33.428 C19.126,33.428 18.571,32.875 18.571,32.190 L18.571,19.809 C18.571,19.125 19.126,18.571 19.810,18.571 L32.190,18.571 C32.874,18.571 33.429,19.125 33.429,19.809 L33.429,32.190 C33.429,32.875 32.874,33.428 32.190,33.428 ZM30.952,21.047 L21.048,21.047 L21.048,30.952 L30.952,30.952 L30.952,21.047 ZM32.190,14.857 L19.810,14.857 C19.126,14.857 18.571,14.303 18.571,13.619 L18.571,1.238 C18.571,0.554 19.126,-0.000 19.810,-0.000 L32.190,-0.000 C32.874,-0.000 33.429,0.554 33.429,1.238 L33.429,13.619 C33.429,14.303 32.874,14.857 32.190,14.857 ZM30.952,2.476 L21.048,2.476 L21.048,12.381 L30.952,12.381 L30.952,2.476 ZM13.619,52.000 L1.238,52.000 C0.554,52.000 -0.000,51.446 -0.000,50.762 L-0.000,38.381 C-0.000,37.696 0.554,37.142 1.238,37.142 L13.619,37.142 C14.303,37.142 14.857,37.696 14.857,38.381 L14.857,50.762 C14.857,51.446 14.303,52.000 13.619,52.000 ZM12.381,39.619 L2.476,39.619 L2.476,49.524 L12.381,49.524 L12.381,39.619 ZM13.619,33.428 L1.238,33.428 C0.554,33.428 -0.000,32.875 -0.000,32.190 L-0.000,19.809 C-0.000,19.125 0.554,18.571 1.238,18.571 L13.619,18.571 C14.303,18.571 14.857,19.125 14.857,19.809 L14.857,32.190 C14.857,32.875 14.303,33.428 13.619,33.428 ZM12.381,21.047 L2.476,21.047 L2.476,30.952 L12.381,30.952 L12.381,21.047 ZM13.619,14.857 L1.238,14.857 C0.554,14.857 -0.000,14.303 -0.000,13.619 L-0.000,1.238 C-0.000,0.554 0.554,-0.000 1.238,-0.000 L13.619,-0.000 C14.303,-0.000 14.857,0.554 14.857,1.238 L14.857,13.619 C14.857,14.303 14.303,14.857 13.619,14.857 ZM12.381,2.476 L2.476,2.476 L2.476,12.381 L12.381,12.381 L12.381,2.476 Z"/>
</svg>