<svg 
 xmlns="http://www.w3.org/2000/svg"
 xmlns:xlink="http://www.w3.org/1999/xlink"
 width="46px" height="55px">
<path fill-rule="evenodd"  fill="rgb(143, 202, 78)"
 d="M45.611,45.063 C44.142,50.914 38.881,55.000 32.819,55.000 L13.181,55.000 C7.118,55.000 1.858,50.914 0.389,45.063 C-0.540,41.376 0.186,37.475 2.377,34.360 L15.309,15.983 C15.981,15.028 17.083,14.458 18.254,14.458 L27.746,14.458 C28.917,14.458 30.019,15.028 30.691,15.984 L43.622,34.359 C45.814,37.475 46.539,41.376 45.611,45.063 ZM41.658,35.727 L28.727,17.351 C28.503,17.032 28.135,16.843 27.746,16.843 L18.254,16.843 C17.864,16.843 17.497,17.032 17.273,17.351 L4.342,35.727 C2.548,38.276 1.955,41.468 2.713,44.485 C3.916,49.272 8.220,52.615 13.181,52.615 L32.819,52.615 C37.780,52.615 42.083,49.272 43.286,44.486 C44.045,41.468 43.452,38.276 41.658,35.727 ZM27.366,41.156 C27.037,43.173 25.489,44.847 23.582,45.317 L23.589,46.727 C23.592,47.385 23.057,47.845 22.396,47.845 C22.393,47.845 22.391,47.845 22.390,47.845 C21.730,47.845 21.195,47.398 21.191,46.742 L21.185,45.339 C18.039,44.778 16.894,42.267 16.881,42.239 C16.613,41.637 16.886,40.889 17.490,40.621 C18.101,40.351 18.803,40.605 19.073,41.206 C19.075,41.211 19.680,42.278 21.173,42.718 L21.145,36.553 C21.094,36.535 21.050,36.514 20.998,36.496 C17.740,35.382 16.968,32.642 17.296,30.757 C17.604,28.983 18.979,27.120 21.100,26.563 L21.094,25.162 C21.091,24.503 21.626,23.997 22.287,23.997 C22.289,23.997 22.292,23.997 22.293,23.997 C22.952,23.997 23.488,24.536 23.492,25.193 L23.497,26.495 C26.088,27.012 27.176,29.308 27.227,29.411 C27.514,30.005 27.263,30.787 26.666,31.073 C26.074,31.356 25.362,31.148 25.072,30.562 C25.040,30.501 24.565,29.639 23.510,29.237 L23.536,34.977 C27.631,37.074 27.525,40.185 27.366,41.156 ZM23.570,42.630 C24.297,42.255 24.862,41.538 25.000,40.694 C25.171,39.643 24.647,38.634 23.548,37.793 L23.570,42.630 ZM19.658,31.294 C19.465,32.403 20.014,33.360 21.134,33.951 L21.113,29.347 C20.310,29.760 19.792,30.523 19.658,31.294 ZM27.370,12.073 L18.815,12.073 C17.217,12.073 15.796,11.006 15.357,9.478 L13.246,2.130 L13.825,1.631 C13.902,1.565 15.743,0.007 18.292,0.007 C19.812,0.007 21.248,0.547 22.559,1.610 C22.737,1.754 22.925,1.816 23.186,1.816 C23.187,1.816 23.187,1.816 23.187,1.816 C23.681,1.816 24.326,1.596 25.009,1.363 C25.873,1.068 26.852,0.734 27.877,0.734 C29.860,0.734 31.367,1.943 32.485,4.432 L32.692,4.893 L30.709,9.824 C30.159,11.190 28.849,12.073 27.370,12.073 ZM19.423,2.580 C19.051,2.466 18.674,2.392 18.292,2.392 C17.341,2.392 16.522,2.740 16.000,3.034 L17.663,8.823 C17.808,9.333 18.282,9.688 18.815,9.688 L20.419,9.688 L19.415,2.703 C19.409,2.660 19.424,2.622 19.423,2.580 ZM27.877,3.118 C27.252,3.118 26.541,3.361 25.787,3.618 C24.949,3.905 24.080,4.200 23.187,4.200 C23.186,4.200 23.186,4.200 23.186,4.200 C22.774,4.200 22.387,4.136 22.026,4.009 L22.841,9.688 L27.370,9.688 C27.863,9.688 28.300,9.394 28.483,8.938 L30.083,4.960 C29.136,3.118 28.264,3.118 27.877,3.118 Z"/>
</svg>