<svg 
 xmlns="http://www.w3.org/2000/svg"
 xmlns:xlink="http://www.w3.org/1999/xlink"
 width="239px" height="47px">
<text kerning="auto" transform="matrix( 2.03258699128191, 0, 0, 2,70, 30)" font-size="10.94px"><tspan font-size="10.94px" font-family="Montserrat" font-weight="bold" fill="#FFFFFF">HelpFounders</tspan></text>
<path fill-rule="evenodd"  fill="rgb(123, 181, 21)"
 d="M30.571,2.994 L44.006,16.429 C47.911,20.334 47.911,26.666 44.006,30.571 L30.571,44.006 C26.666,47.911 20.334,47.911 16.429,44.006 L2.994,30.571 C-0.911,26.666 -0.911,20.334 2.994,16.429 L16.429,2.994 C20.334,-0.911 26.666,-0.911 30.571,2.994 Z"/>
<path fill-rule="evenodd"  fill="rgb(255, 255, 255)"
 d="M44.820,9.981 L53.997,19.159 C56.665,21.826 56.665,26.152 53.997,28.820 L44.820,37.997 C42.152,40.665 37.827,40.665 35.159,37.997 L25.981,28.820 C23.313,26.152 23.313,21.826 25.981,19.159 L35.159,9.981 C37.827,7.313 42.152,7.313 44.820,9.981 Z"/>
</svg>